<!-- Generator: Adobe Illustrator 22.0.1, SVG Export Plug-In  -->
<svg version="1.1"
	 xmlns="http://www.w3.org/2000/svg" xmlns:xlink="http://www.w3.org/1999/xlink" xmlns:a="http://ns.adobe.com/AdobeSVGViewerExtensions/3.0/"
	 x="0px" y="0px" width="385.833px" height="385.45px" viewBox="0 0 385.833 385.45"
	 style="enable-background:new 0 0 385.833 385.45;" xml:space="preserve">
<style type="text/css">
	.st0{fill:#FFFFFF;}
</style>
<defs>
</defs>
<path class="st0" d="M25.851,289.764C8.614,260.186,0,227.902,0,192.917c0-34.979,8.614-67.263,25.851-96.841
	c17.23-29.578,40.638-52.989,70.221-70.221C125.649,8.622,157.932,0,192.917,0c34.979,0,67.262,8.622,96.845,25.854
	c29.576,17.232,52.986,40.643,70.221,70.221c17.23,29.578,25.851,61.863,25.851,96.841c0,34.985-8.621,67.27-25.851,96.848
	c-17.235,29.572-40.645,52.914-70.221,70.026c-29.583,17.1-61.866,25.659-96.845,25.659c-34.985,0-67.268-8.559-96.845-25.659
	C66.489,342.678,43.081,319.336,25.851,289.764z M65.205,288.219l77.264-93.871l-77.264-61.04V288.219z M66.364,121.923
	l125.01,98.776l125.01-98.776H66.364z M191.584,233.158l-43.05-34.018l-73.966,89.852h233.158l-73.874-89.243l-42.689,33.899
	L191.584,233.158z M240.193,194.713l76.576,93.117V133.918L240.193,194.713z"/>
</svg>