<!-- Generator: Adobe Illustrator 22.0.1, SVG Export Plug-In  -->
<svg version="1.1"
	 xmlns="http://www.w3.org/2000/svg" xmlns:xlink="http://www.w3.org/1999/xlink" xmlns:a="http://ns.adobe.com/AdobeSVGViewerExtensions/3.0/"
	 x="0px" y="0px" width="386.22px" height="385.45px" viewBox="0 0 386.22 385.45"
	 style="enable-background:new 0 0 386.22 385.45;" xml:space="preserve">
<style type="text/css">
	.st0{fill:#FFFFFF;}
</style>
<defs>
</defs>
<path class="st0" d="M290.147,359.791c-29.583,17.1-61.867,25.659-96.845,25.659c-34.985,0-67.328-8.559-97.038-25.659
	c-29.708-17.113-53.184-40.386-70.414-69.838C8.614,260.507,0,228.285,0,193.306s8.614-67.332,25.851-97.042
	c17.23-29.71,40.706-53.178,70.414-70.41C125.975,8.622,158.318,0,193.303,0c34.977,0,67.262,8.622,96.845,25.854
	c29.576,17.232,52.985,40.7,70.221,70.41c17.23,29.71,25.851,62.064,25.851,97.042s-8.621,67.201-25.851,96.647
	C343.132,319.405,319.724,342.678,290.147,359.791z M338.761,158.962h-80.253c6.686,12.095,10.032,24.699,10.032,37.811
	c0,20.585-7.33,38.2-21.992,52.864c-14.662,14.657-32.41,21.992-53.245,21.992c-20.582,0-38.197-7.335-52.859-21.992
	c-14.662-14.663-21.994-32.278-21.994-52.864c0-13.112,3.341-25.716,10.032-37.811h-0.771H48.229
	c-3.346,11.837-5.016,24.441-5.016,37.811c0,41.422,14.662,76.658,43.986,105.721c29.324,29.063,64.687,43.601,106.104,43.601
	c41.67,0,77.167-14.538,106.49-43.601c29.322-29.063,43.984-64.299,43.984-105.721C343.777,183.403,342.102,170.799,338.761,158.962
	z M193.303,131.186c-18.007,0-33.442,6.431-46.3,19.292c-12.866,12.861-19.292,28.297-19.292,46.295
	c0,18.011,6.426,33.446,19.292,46.301c12.858,12.867,28.292,19.292,46.3,19.292c18.26,0,33.82-6.424,46.686-19.292
	c12.858-12.855,19.292-28.291,19.292-46.301c0-17.998-6.434-33.434-19.292-46.295C227.123,137.616,211.563,131.186,193.303,131.186z
	 M193.303,239.218c-11.575,0-21.48-4.176-29.71-12.541c-8.234-8.352-12.346-18.325-12.346-29.905
	c0-11.825,4.112-21.797,12.346-29.898c8.23-8.101,18.135-12.151,29.71-12.151c11.828,0,21.86,4.05,30.095,12.151
	c8.23,8.101,12.346,18.073,12.346,29.898c0,11.58-4.116,21.552-12.346,29.905C215.163,235.042,205.131,239.218,193.303,239.218z
	 M305.966,121.54v-18.909c0-2.317-0.386-4.628-1.159-6.946c-3.087-3.598-6.559-7.071-10.417-10.418
	c-2.316-0.772-4.63-1.155-6.945-1.155H268.54c-5.148,0-9.519,1.802-13.119,5.401c-3.605,3.605-5.402,7.975-5.402,13.119v18.909
	c0,5.149,1.798,9.583,5.402,13.307c3.6,3.736,7.971,5.595,13.119,5.595h18.905c5.143,0,9.514-1.859,13.119-5.595
	C304.164,131.123,305.966,126.689,305.966,121.54z"/>
</svg>