<!-- Generator: Adobe Illustrator 22.0.1, SVG Export Plug-In  -->
<svg version="1.1"
	 xmlns="http://www.w3.org/2000/svg" xmlns:xlink="http://www.w3.org/1999/xlink" xmlns:a="http://ns.adobe.com/AdobeSVGViewerExtensions/3.0/"
	 x="0px" y="0px" width="1368px" height="158.193px" viewBox="0 0 1368 158.193" style="enable-background:new 0 0 1368 158.193;"
	 xml:space="preserve">
<style type="text/css">
	.st0{fill:#FFFFFF;}
	.st1{fill:#FF5100;}
	.st2{fill:#8E9C9C;}
	.st3{fill:none;stroke:#8E9C9C;stroke-width:0.25;stroke-miterlimit:10;}
	.st4{fill:none;stroke:#8E9C9C;stroke-width:2;stroke-linecap:round;stroke-miterlimit:10;}
</style>
<defs>
</defs>
<rect class="st0" width="1368" height="141"/>
<g>
	<path class="st1" d="M1149.203,101.22c-1.897,1.686-4.595,2.403-7.629,2.403h-3.204c-3.667,0-6.955-1.855-8.768-4.764
		c-0.632-0.926-1.012-1.854-1.18-2.74c-0.337-1.727-0.295-2.444-0.295-3.414v0.085c0-0.844,0.042-1.645,1.349-1.645h2.866
		c0.674,0,1.096,0.338,1.265,1.013c0.168,0.547,0.126,0.674,0.126,1.348c0,0.211,0.042,0.591,0.084,1.138
		c0.464,2.066,2.361,3.583,4.553,3.583h3.204c2.529,0,4.72-1.39,5.1-3.625c0.042-0.295,0.084-0.548,0.084-0.842
		c0.043-0.549,0.085-1.814-0.632-2.446c-1.18-1.011-3.751-1.432-6.786-2.149c-5.396-1.223-11.213-2.867-11.213-8.515v-0.59
		c0-0.886-0.042-1.77,0.253-2.909l-0.042,0.043c0.885-4.679,5.226-8.094,10.032-8.094h3.204c2.529,0,4.931,0.927,6.828,2.445
		c1.897,1.517,3.078,4.426,2.951,7.671c-0.042,0.844-0.042,1.645-1.349,1.645h-2.782c-0.801,0-1.307-0.675-1.349-1.349
		c-0.126-3.583-1.602-4.932-4.299-4.932h-3.204c-2.15,0-4.131,1.559-4.595,3.71v-0.043c-0.126,0.717-0.379,1.982,0.675,3.035
		c0.548,0.549,1.18,0.928,1.812,1.096l4.848,1.349c2.529,0.717,4.342,1.181,5.395,1.56c1.138,0.379,2.108,0.885,2.951,1.433
		c1.728,1.18,2.951,3.204,2.951,6.07C1152.407,95.993,1151.1,99.534,1149.203,101.22"/>
	<path class="st1" d="M1181.405,103.243h-3.035c-0.885,0-1.054-0.463-1.349-1.095l-3.836-11.086l-10.369,4.594l-2.319,6.492
		c-0.295,0.674-0.379,1.095-1.391,1.095h-2.908c-0.675,0-1.392-0.548-1.392-1.349c0-0.168,9.653-28.621,10.75-31.276
		c0.295-0.633,0.505-1.097,1.349-1.097h3.709c0.843,0,1.011,0.548,1.307,1.097l10.791,30.771c0.041,0.295,0.041,0.337,0.041,0.505
		C1182.753,102.78,1182.29,103.243,1181.405,103.243 M1171.162,85.455c-0.506-1.348-0.843-2.192-0.97-2.656
		c-0.126-0.463-0.295-0.843-0.421-1.307c-0.295-0.842-0.548-1.727-1.012-3.034l-3.414,9.568L1171.162,85.455z"/>
	<path class="st1" d="M1209.272,92.537c0,5.901-4.975,10.706-10.876,10.706h-3.245c-5.564,0-10.243-4.426-10.243-10.159V70.87
		c0-0.885,0.463-1.349,1.348-1.349h2.825c1.307,0,1.348,0.801,1.348,1.644v21.919c0,2.572,2.192,4.637,4.722,4.637h3.245
		c2.909,0,5.312-2.318,5.312-5.184V71.165c0-0.843,0.084-1.644,1.39-1.644h2.783c0.927,0,1.391,0.464,1.391,1.349V92.537z
		 M1194.018,75.633c-1.222,0-1.475-0.547-1.012-1.348l2.024-3.71c0.505-0.717,1.264-1.054,2.318-1.054h2.866
		c1.012,0,1.476,0.506,0.97,1.307l-2.909,3.667c-0.843,0.885-1.559,1.138-2.276,1.138H1194.018z"/>
	<path class="st1" d="M1227.689,69.521c7.377,0,13.405,6.029,13.405,13.363v6.998c0,7.334-6.028,13.362-13.405,13.362h-11.929
		c-0.801,0-1.349-0.549-1.349-1.35l-0.084-31.023c0-0.675,0.632-1.35,1.433-1.35H1227.689z M1219.975,75.128v22.51h7.714
		c4.257,0,7.798-3.541,7.798-7.756v-6.998c0-4.215-3.541-7.756-7.798-7.756H1219.975z"/>
	<path class="st1" d="M1247.245,103.243c-0.801,0-1.348-0.548-1.348-1.349l-0.085-31.024c0-0.801,0.632-1.349,1.433-1.349h21.28
		c1.392,0,1.392,0.801,1.392,1.644v2.318c0,1.518-0.212,1.644-1.687,1.644h-16.728v7.462h14.958c0.801,0,1.349,0.589,1.349,1.39
		v2.867c0,0.8-0.548,1.391-1.349,1.391h-14.958v9.4h17.277c1.475,0,1.685,0.126,1.685,1.643v2.277c0,0.843,0,1.686-1.391,1.686
		H1247.245z"/>
	<g>
		<path class="st1" d="M1112.757,109.187c0.056-0.056,0.116-0.127,0.18-0.211c0.063-0.085,0.137-0.155,0.222-0.211
			c0.084-0.057,0.169-0.088,0.253-0.096c0.085-0.007,0.177,0.032,0.275,0.116c0.084,0.071,0.13,0.162,0.137,0.274
			c0.007,0.113-0.01,0.229-0.053,0.349c-0.042,0.12-0.092,0.236-0.147,0.349c-0.057,0.113-0.099,0.205-0.127,0.275
			c-0.409,0.916-0.934,1.803-1.574,2.662c-0.642,0.859-1.356,1.55-2.145,2.071c-0.24,0.155-0.511,0.271-0.813,0.349
			c-0.304,0.077-0.603,0.081-0.898,0.01c-0.408-0.098-0.722-0.303-0.94-0.612s-0.355-0.662-0.412-1.057s-0.042-0.796,0.043-1.204
			c0.084-0.408,0.218-0.761,0.401-1.057c-0.184,0.282-0.384,0.592-0.603,0.93s-0.454,0.676-0.708,1.015
			c-0.253,0.338-0.518,0.658-0.792,0.961c-0.275,0.303-0.567,0.55-0.877,0.739c-0.311,0.19-0.631,0.311-0.962,0.359
			c-0.331,0.05-0.673-0.011-1.024-0.18c-0.536-0.239-0.923-0.563-1.162-0.972s-0.377-0.859-0.412-1.353s0.011-1.011,0.137-1.553
			c0.127-0.542,0.3-1.07,0.519-1.585c0.218-0.514,0.457-0.993,0.718-1.437c0.261-0.444,0.504-0.821,0.729-1.131
			c0.45-0.62,0.961-1.208,1.532-1.765c0.57-0.556,1.2-1.011,1.891-1.362c0.254-0.127,0.535-0.232,0.846-0.317
			c0.31-0.085,0.623-0.134,0.939-0.147c0.317-0.015,0.627,0.021,0.931,0.105c0.303,0.084,0.566,0.232,0.792,0.443
			c0.141,0.142,0.232,0.289,0.274,0.444c0.085-0.226,0.201-0.511,0.349-0.856c0.148-0.345,0.324-0.708,0.528-1.088
			c0.204-0.381,0.43-0.761,0.677-1.142c0.246-0.38,0.503-0.718,0.771-1.014s0.546-0.531,0.835-0.708
			c0.289-0.176,0.581-0.257,0.877-0.243c0.268,0.028,0.504,0.113,0.708,0.254s0.359,0.316,0.465,0.528
			c0.105,0.211,0.165,0.443,0.18,0.697c0.014,0.253-0.021,0.5-0.105,0.739c-0.113,0.311-0.261,0.609-0.444,0.898
			c-0.183,0.289-0.38,0.574-0.592,0.855c-0.211,0.282-0.426,0.567-0.645,0.855c-0.218,0.289-0.433,0.581-0.645,0.877
			c-0.535,1.015-1.077,2.043-1.627,3.085c-0.549,1.043-1.007,2.071-1.373,3.085c-0.099,0.282-0.077,0.466,0.063,0.55
			c0.141,0.085,0.38-0.042,0.719-0.38c0.211-0.212,0.499-0.497,0.866-0.856C1111.897,110.17,1112.306,109.723,1112.757,109.187z
			 M1107.686,106.124c-0.423,0.268-0.846,0.623-1.269,1.067c-0.422,0.443-0.82,0.919-1.193,1.426
			c-0.374,0.507-0.697,1.018-0.972,1.532c-0.275,0.515-0.476,0.982-0.603,1.405c-0.099,0.324-0.081,0.531,0.053,0.623
			s0.37,0.018,0.708-0.222c0.281-0.183,0.599-0.44,0.95-0.771c0.353-0.331,0.712-0.697,1.078-1.099s0.722-0.807,1.067-1.215
			c0.345-0.409,0.658-0.774,0.94-1.099c0.154-0.366,0.306-0.732,0.454-1.1c0.147-0.366,0.307-0.731,0.476-1.099
			c-0.24,0.028-0.483,0.063-0.729,0.105C1108.4,105.722,1108.079,105.87,1107.686,106.124z"/>
		<path class="st1" d="M1122.477,105.87c-0.719-0.084-1.405-0.014-2.061,0.212c-0.654,0.225-1.265,0.546-1.827,0.961
			c-0.563,0.416-1.074,0.888-1.532,1.416s-0.849,1.06-1.173,1.595c-0.563,0.93-0.835,1.54-0.813,1.828
			c0.021,0.289,0.215,0.335,0.581,0.138s0.842-0.599,1.427-1.205c0.584-0.605,1.165-1.331,1.743-2.176
			c0.141-0.197,0.292-0.401,0.454-0.613c0.162-0.211,0.338-0.404,0.528-0.581c0.19-0.176,0.404-0.323,0.645-0.443
			c0.239-0.12,0.5-0.193,0.781-0.222c0.339-0.028,0.624,0.014,0.856,0.126c0.232,0.113,0.408,0.271,0.528,0.476
			c0.119,0.205,0.169,0.447,0.147,0.729c-0.021,0.281-0.123,0.577-0.307,0.888c-0.084,0.154-0.197,0.334-0.338,0.538
			c-0.141,0.205-0.285,0.427-0.433,0.666c-0.148,0.239-0.289,0.482-0.423,0.729c-0.134,0.247-0.243,0.483-0.328,0.708
			c-0.112,0.311-0.084,0.454,0.085,0.434c0.169-0.021,0.395-0.151,0.676-0.391c0.535-0.451,1.025-0.934,1.469-1.448
			c0.444-0.514,0.87-0.989,1.278-1.426c0.085-0.085,0.173-0.134,0.265-0.148c0.091-0.014,0.176,0,0.253,0.043
			c0.078,0.042,0.138,0.109,0.18,0.2c0.043,0.092,0.05,0.201,0.021,0.328c-0.113,0.493-0.349,1.066-0.708,1.722
			s-0.785,1.286-1.278,1.892c-0.493,0.605-1.021,1.134-1.585,1.584c-0.563,0.451-1.099,0.712-1.605,0.782
			c-0.338,0.042-0.655,0.018-0.951-0.074c-0.296-0.091-0.549-0.235-0.761-0.433c-0.211-0.197-0.38-0.44-0.507-0.729
			c-0.127-0.288-0.19-0.602-0.19-0.94c0-0.268,0.024-0.535,0.074-0.803c0.049-0.268,0.116-0.535,0.2-0.803
			c-0.239,0.408-0.493,0.853-0.761,1.331c-0.268,0.479-0.57,0.916-0.908,1.311s-0.715,0.697-1.131,0.908
			c-0.415,0.211-0.891,0.254-1.426,0.127c-0.605-0.141-1.035-0.416-1.289-0.824s-0.397-0.87-0.434-1.384
			c-0.034-0.515,0.015-1.043,0.148-1.585s0.292-1.018,0.476-1.427c0.465-1.057,1.07-2.031,1.817-2.926
			c0.746-0.895,1.599-1.659,2.557-2.293c0.437-0.296,0.926-0.561,1.469-0.793c0.542-0.232,1.095-0.391,1.658-0.475
			c0.563-0.085,1.12-0.074,1.669,0.031c0.55,0.105,1.057,0.349,1.521,0.729c0.184,0.154,0.293,0.334,0.328,0.538
			c0.035,0.205,0.014,0.398-0.063,0.581c-0.078,0.184-0.204,0.335-0.381,0.455C1122.924,105.852,1122.716,105.898,1122.477,105.87z"
			/>
	</g>
	<path class="st2" d="M1125.76,55.65c0,5.059-4.089,9.147-9.147,9.147h-14.163c-0.801,0-1.307-0.674-1.307-1.349l-0.084-31.024
		c0-0.801,0.59-1.349,1.391-1.349h13.826c3.962,0,7.082,3.246,7.082,7.166c0,1.476-0.253,2.614-0.759,3.499
		c-0.506,0.885-1.644,1.812-3.372,2.739c4.594,0.843,6.533,3.12,6.533,7.673V55.65z M1106.665,45.955
		c3.246-1.686,9.99-5.353,10.791-6.618c0.169-0.253,0.253-0.633,0.253-1.096c0-0.843-0.59-1.559-1.433-1.559h-9.611V45.955z
		 M1106.665,52.025v7.166h9.948c0.97,0,1.813-0.338,2.529-1.054l0.422-0.505c0.674-0.801,0.632-1.813,0.632-1.982
		c0-0.463,0.042-0.8,0.042-1.264c0-0.38,0.043-0.801,0.043-1.181c0-3.035-1.476-4.004-3.036-4.004h-5.395L1106.665,52.025z"/>
	<path class="st2" d="M1154.47,64.797h-3.035c-0.885,0-1.053-0.463-1.349-1.095l-3.836-11.086l-10.369,4.594l-2.318,6.492
		c-0.296,0.674-0.38,1.095-1.391,1.095h-2.909c-0.674,0-1.391-0.548-1.391-1.349c0-0.168,9.653-28.621,10.749-31.277
		c0.295-0.632,0.506-1.096,1.349-1.096h3.709c0.843,0,1.012,0.548,1.307,1.096l10.791,30.772c0.042,0.295,0.042,0.337,0.042,0.505
		C1155.819,64.334,1155.356,64.797,1154.47,64.797 M1144.227,47.009c-0.506-1.349-0.843-2.192-0.969-2.656
		c-0.127-0.463-0.295-0.843-0.422-1.307c-0.295-0.843-0.548-1.727-1.011-3.034l-3.415,9.568L1144.227,47.009z"/>
	<path class="st2" d="M1184.606,63.448c0,0.675-0.59,1.349-1.391,1.349h-2.866c-0.548,0-0.928-0.21-1.181-0.632
		c-5.058-7.545-9.442-14.037-14.627-21.708v20.991c0,0.675-0.59,1.349-1.391,1.349h-2.908c-0.801,0-1.265-0.674-1.265-1.349
		l-0.084-31.024c0-0.674,0.548-1.349,1.349-1.349h3.119c0.506,0,0.885,0.211,1.138,0.675v-0.042l14.458,21.75V32.424
		c0-0.674,0.591-1.349,1.392-1.349h2.866c0.801,0,1.391,0.675,1.391,1.349V63.448z"/>
	<path class="st2" d="M1216.892,41.866c0,0.042-0.042,0.379-0.042,0.422c-0.169,0.548-0.506,1.222-1.307,1.222h-2.824
		c-0.716,0-1.012-0.379-1.307-0.928c-0.463-1.306-0.758-2.318-1.475-3.287c-1.518-2.066-3.92-3.288-6.618-3.288
		c-4.51,0-8.22,3.71-8.22,8.262v7.334c0,4.553,3.71,8.263,8.22,8.263c2.698,0,5.058-1.223,6.702-3.372
		c0.843-1.138,1.181-2.235,1.518-3.626l-0.043,0.085c0.127-0.759,0.548-1.138,1.307-1.138h2.825c0.801,0,1.348,0.674,1.348,1.348
		c0,0.843-0.253,1.812-0.547,2.613c-1.898,5.396-7.377,9.485-13.11,9.485c-7.545,0-13.699-6.112-13.699-13.658v-7.334
		c0-7.545,6.154-13.741,13.699-13.741C1210.19,30.528,1215.543,35.29,1216.892,41.866"/>
	<path class="st2" d="M1250.484,51.182c0,7.756-6.618,13.995-14.711,13.995s-14.753-6.239-14.753-13.995v-6.618
		c0-7.756,6.702-13.953,14.795-13.953c8.136,0,14.669,6.197,14.669,13.953V51.182z M1244.794,44.564c0-4.72-4.089-8.598-9.021-8.598
		c-4.974,0-9.063,3.919-9.063,8.598v6.618c0,4.721,4.089,8.599,9.063,8.599c4.932,0,9.021-3.878,9.021-8.599V44.564z"/>
	<polygon class="st2" points="1225.74,49.146 1245.763,40.237 1245.763,46.602 1225.74,55.511 	"/>
	<path class="st1" d="M1150.624,114.247c-0.196,0.576-0.736,0.963-1.344,0.963h-18.748c-1.475,0-1.685-0.126-1.685-1.643v-2.276
		c0-0.844,0-1.687,1.39-1.687h20.834c0.555,0,0.946,0.545,0.767,1.071L1150.624,114.247z"/>
	<path class="st2" d="M828.68,44.155h-1.725c-0.503,0-0.599-0.263-0.767-0.623l-2.18-6.3l-5.893,2.611l-1.318,3.689
		c-0.168,0.384-0.215,0.623-0.79,0.623h-1.653c-0.384,0-0.791-0.311-0.791-0.766c0-0.096,5.486-16.267,6.109-17.776
		c0.168-0.359,0.288-0.623,0.767-0.623h2.108c0.479,0,0.575,0.312,0.743,0.623l6.132,17.489c0.025,0.167,0.025,0.191,0.025,0.287
		C829.447,43.892,829.183,44.155,828.68,44.155 M822.858,34.046c-0.287-0.767-0.479-1.246-0.551-1.51
		c-0.071-0.263-0.167-0.478-0.239-0.742c-0.168-0.479-0.312-0.982-0.575-1.725l-1.941,5.438L822.858,34.046z"/>
	<path class="st3" d="M828.68,44.155h-1.725c-0.503,0-0.599-0.263-0.767-0.623l-2.18-6.3l-5.893,2.611l-1.318,3.689
		c-0.168,0.384-0.215,0.623-0.79,0.623h-1.653c-0.384,0-0.791-0.311-0.791-0.766c0-0.096,5.486-16.267,6.109-17.776
		c0.168-0.359,0.288-0.623,0.767-0.623h2.108c0.479,0,0.575,0.312,0.743,0.623l6.132,17.489c0.025,0.167,0.025,0.191,0.025,0.287
		C829.447,43.892,829.183,44.155,828.68,44.155z M822.858,34.046c-0.287-0.767-0.479-1.246-0.551-1.51
		c-0.071-0.263-0.167-0.478-0.239-0.742c-0.168-0.479-0.312-0.982-0.575-1.725l-1.941,5.438L822.858,34.046z"/>
	<path class="st2" d="M830.459,43.204c0.018-0.398,0.131-0.838,0.339-1.317c0.208-0.481,0.449-0.857,0.721-1.128
		c1.43,0.779,2.689,1.168,3.776,1.168c0.599,0,1.083-0.118,1.454-0.353c0.371-0.235,0.557-0.553,0.557-0.951
		c0-0.634-0.489-1.142-1.467-1.522l-1.522-0.571c-2.283-0.833-3.423-2.164-3.423-3.994c0-0.652,0.122-1.236,0.366-1.753
		c0.245-0.516,0.589-0.96,1.033-1.331c0.443-0.371,0.974-0.656,1.59-0.855c0.615-0.2,1.304-0.3,2.064-0.3
		c0.344,0,0.73,0.027,1.156,0.082c0.424,0.054,0.855,0.132,1.29,0.23c0.435,0.101,0.851,0.214,1.25,0.34
		c0.398,0.127,0.743,0.263,1.033,0.408c0,0.452-0.091,0.924-0.273,1.412c-0.18,0.49-0.425,0.853-0.733,1.087
		c-1.431-0.633-2.672-0.95-3.723-0.95c-0.47,0-0.842,0.113-1.114,0.339c-0.271,0.228-0.407,0.521-0.407,0.884
		c0,0.561,0.452,1.005,1.358,1.331l1.658,0.598c1.196,0.417,2.082,0.988,2.663,1.711c0.58,0.725,0.87,1.568,0.87,2.528
		c0,1.286-0.481,2.314-1.441,3.084c-0.96,0.77-2.337,1.155-4.13,1.155C833.647,44.536,831.997,44.092,830.459,43.204"/>
	<path class="st2" d="M842.414,43.204c0.018-0.398,0.131-0.838,0.339-1.317c0.208-0.481,0.449-0.857,0.721-1.128
		c1.43,0.779,2.689,1.168,3.776,1.168c0.599,0,1.083-0.118,1.454-0.353c0.371-0.235,0.557-0.553,0.557-0.951
		c0-0.634-0.489-1.142-1.467-1.522l-1.522-0.571c-2.283-0.833-3.423-2.164-3.423-3.994c0-0.652,0.122-1.236,0.366-1.753
		c0.245-0.516,0.589-0.96,1.033-1.331c0.443-0.371,0.974-0.656,1.59-0.855c0.615-0.2,1.304-0.3,2.064-0.3
		c0.344,0,0.73,0.027,1.156,0.082c0.424,0.054,0.855,0.132,1.29,0.23c0.435,0.101,0.851,0.214,1.25,0.34
		c0.398,0.127,0.743,0.263,1.033,0.408c0,0.452-0.091,0.924-0.273,1.412c-0.18,0.49-0.425,0.853-0.733,1.087
		c-1.431-0.633-2.672-0.95-3.723-0.95c-0.47,0-0.842,0.113-1.114,0.339c-0.271,0.228-0.407,0.521-0.407,0.884
		c0,0.561,0.452,1.005,1.358,1.331l1.658,0.598c1.196,0.417,2.082,0.988,2.663,1.711c0.58,0.725,0.87,1.568,0.87,2.528
		c0,1.286-0.481,2.314-1.441,3.084c-0.96,0.77-2.337,1.155-4.13,1.155C845.602,44.536,843.953,44.092,842.414,43.204"/>
	<path class="st2" d="M864.912,31.819c1.285,1.287,1.929,3.152,1.929,5.597c0,1.087-0.136,2.07-0.407,2.948
		c-0.272,0.879-0.666,1.627-1.183,2.242c-0.516,0.617-1.154,1.092-1.915,1.427c-0.761,0.335-1.622,0.503-2.582,0.503
		s-1.815-0.168-2.567-0.503c-0.752-0.335-1.386-0.81-1.903-1.427c-0.515-0.615-0.91-1.363-1.181-2.242
		c-0.272-0.878-0.408-1.861-0.408-2.948c0-2.191,0.525-3.926,1.576-5.203c1.05-1.277,2.545-1.916,4.483-1.916
		C862.457,30.297,863.843,30.805,864.912,31.819 M860.754,32.96c-1.594,0-2.391,1.485-2.391,4.456c0,2.953,0.797,4.43,2.391,4.43
		c1.612,0,2.419-1.477,2.419-4.43C863.173,34.445,862.366,32.96,860.754,32.96"/>
	<path class="st2" d="M876.65,36.275c0-1.087-0.131-1.911-0.392-2.473c-0.26-0.561-0.787-0.842-1.579-0.842
		c-1.439,0-2.159,1.503-2.159,4.51c0,1.486,0.207,2.564,0.622,3.234c0.415,0.671,1.083,1.006,2.004,1.006
		c0.469,0,0.974-0.1,1.516-0.299c0.541-0.199,1.1-0.517,1.678-0.951c0.289,0.18,0.573,0.475,0.853,0.882
		c0.279,0.409,0.455,0.793,0.527,1.156c-0.615,0.616-1.372,1.109-2.268,1.48c-0.897,0.371-1.834,0.558-2.813,0.558
		c-1.902,0-3.342-0.648-4.32-1.944c-0.979-1.295-1.467-3.074-1.467-5.338c0-1.16,0.158-2.174,0.475-3.044
		c0.317-0.87,0.748-1.594,1.291-2.174c0.544-0.579,1.164-1.014,1.861-1.304c0.697-0.29,1.427-0.436,2.188-0.436
		c0.796,0,1.516,0.115,2.16,0.34c0.642,0.227,1.186,0.535,1.631,0.924c0.443,0.39,0.787,0.848,1.032,1.372
		c0.244,0.527,0.366,1.078,0.366,1.658c0,0.581-0.149,1.029-0.448,1.345c-0.299,0.318-0.747,0.476-1.345,0.476
		C877.52,36.411,877.048,36.366,876.65,36.275"/>
	<path class="st2" d="M886.894,33.421v10.734c-0.272,0.054-0.558,0.09-0.857,0.108c-0.299,0.019-0.602,0.027-0.91,0.027
		s-0.611-0.008-0.91-0.027c-0.299-0.018-0.594-0.054-0.883-0.108v-9.456c0-0.996-0.408-1.495-1.223-1.495h-0.353
		c-0.109-0.398-0.163-0.815-0.163-1.25c0-0.398,0.054-0.815,0.163-1.25c0.416-0.036,0.802-0.068,1.154-0.095
		c0.354-0.027,0.657-0.04,0.911-0.04h0.462c0.815,0,1.453,0.254,1.915,0.76C886.662,31.836,886.894,32.535,886.894,33.421
		 M882.791,25.433c0.417-0.235,1.015-0.354,1.794-0.354c0.452,0,0.819,0.037,1.101,0.109c0.28,0.073,0.484,0.159,0.611,0.259
		c0.126,0.099,0.208,0.285,0.244,0.556c0.036,0.272,0.055,0.553,0.055,0.843c-0.055,0.924-0.168,1.431-0.34,1.522
		c-0.173,0.09-0.738,0.181-1.698,0.271c-1.015-0.036-1.609-0.172-1.781-0.407c-0.172-0.236-0.257-0.697-0.257-1.386
		C882.519,26.321,882.609,25.85,882.791,25.433"/>
	<path class="st2" d="M901.567,42.526c-0.091,0.325-0.254,0.67-0.49,1.032c-0.235,0.362-0.47,0.634-0.706,0.815
		c-1.177-0.145-2.038-0.661-2.582-1.548c-1.177,1.14-2.463,1.711-3.858,1.711c-0.706,0-1.327-0.114-1.861-0.339
		c-0.535-0.227-0.978-0.531-1.331-0.911c-0.354-0.38-0.617-0.815-0.789-1.304c-0.171-0.49-0.257-0.996-0.257-1.522
		c0-0.76,0.13-1.427,0.393-1.997c0.263-0.571,0.634-1.047,1.114-1.427c0.48-0.38,1.041-0.669,1.685-0.869
		c0.643-0.199,1.345-0.3,2.105-0.3c0.979,0,1.74,0.028,2.284,0.083v-0.734c0-1.377-0.671-2.065-2.011-2.065
		c-0.906,0-2.283,0.317-4.131,0.951c-0.507-0.562-0.814-1.403-0.924-2.527c1.92-0.816,3.905-1.223,5.951-1.223
		c1.359,0,2.473,0.381,3.342,1.141c0.87,0.761,1.305,1.912,1.305,3.451v5.57C900.806,41.475,901.06,42.145,901.567,42.526
		 M894.719,41.846c0.906,0,1.757-0.398,2.555-1.195v-2.365c-0.29-0.017-0.572-0.036-0.843-0.054
		c-0.272-0.018-0.534-0.028-0.788-0.028c-0.797,0-1.403,0.15-1.82,0.45c-0.417,0.298-0.625,0.792-0.625,1.48
		c0,0.543,0.135,0.965,0.407,1.264C893.877,41.697,894.248,41.846,894.719,41.846"/>
	<path class="st2" d="M907.41,46.221c0.199-0.761,0.389-1.35,0.57-1.767c-1.558-0.235-2.735-0.982-3.532-2.241
		c-0.798-1.26-1.195-2.84-1.195-4.742c0-1.231,0.158-2.3,0.474-3.206c0.318-0.906,0.748-1.653,1.291-2.242
		c0.544-0.588,1.164-1.023,1.862-1.304c0.697-0.281,1.426-0.422,2.187-0.422c0.797,0,1.517,0.114,2.16,0.34
		c0.643,0.227,1.187,0.535,1.631,0.924c0.444,0.389,0.787,0.847,1.032,1.372c0.245,0.526,0.367,1.078,0.367,1.658
		s-0.15,1.028-0.449,1.345c-0.298,0.317-0.747,0.475-1.344,0.475c-0.309,0-0.78-0.044-1.413-0.135c0-1.142-0.14-1.98-0.418-2.514
		c-0.28-0.534-0.797-0.802-1.553-0.802c-1.44,0-2.159,1.504-2.159,4.511c0,1.485,0.207,2.563,0.622,3.233
		c0.415,0.671,1.083,1.006,2.004,1.006c0.468,0,0.973-0.099,1.515-0.299c0.541-0.199,1.101-0.516,1.679-0.951
		c0.288,0.181,0.572,0.476,0.853,0.883c0.279,0.408,0.455,0.793,0.527,1.155c-1.105,1.105-2.5,1.766-4.185,1.984
		c-0.127,0.217-0.216,0.416-0.271,0.597c0.815,0.055,1.458,0.299,1.93,0.734c0.47,0.434,0.706,1.033,0.706,1.794
		c0,0.38-0.091,0.733-0.272,1.059c-0.182,0.326-0.431,0.616-0.747,0.869c-0.317,0.254-0.684,0.454-1.101,0.598
		c-0.417,0.146-0.86,0.218-1.332,0.218c-0.977,0-1.748-0.199-2.309-0.598c0.018-0.616,0.226-1.159,0.625-1.631
		c0.398,0.236,0.833,0.354,1.305,0.354c0.724,0,1.086-0.299,1.086-0.897c0-0.344-0.104-0.58-0.312-0.707
		c-0.209-0.127-0.439-0.189-0.693-0.189c-0.217,0-0.417,0.027-0.598,0.081C907.718,46.637,907.536,46.456,907.41,46.221"/>
	<path class="st2" d="M927.951,42.526c-0.091,0.325-0.254,0.67-0.49,1.032c-0.235,0.362-0.47,0.634-0.706,0.815
		c-1.177-0.145-2.038-0.661-2.582-1.548c-1.177,1.14-2.463,1.711-3.858,1.711c-0.706,0-1.327-0.114-1.861-0.339
		c-0.535-0.227-0.978-0.531-1.331-0.911c-0.354-0.38-0.617-0.815-0.789-1.304c-0.171-0.49-0.257-0.996-0.257-1.522
		c0-0.76,0.13-1.427,0.393-1.997c0.263-0.571,0.634-1.047,1.114-1.427c0.48-0.38,1.041-0.669,1.685-0.869
		c0.643-0.199,1.345-0.3,2.105-0.3c0.979,0,1.74,0.028,2.284,0.083v-0.734c0-1.377-0.671-2.065-2.011-2.065
		c-0.906,0-2.283,0.317-4.131,0.951c-0.507-0.562-0.814-1.403-0.924-2.527c1.92-0.816,3.905-1.223,5.951-1.223
		c1.359,0,2.473,0.381,3.342,1.141c0.87,0.761,1.305,1.912,1.305,3.451v5.57C927.19,41.475,927.444,42.145,927.951,42.526
		 M921.973,28.613l-1.332-0.652c-0.127-0.072-0.254-0.132-0.38-0.177c-0.127-0.044-0.262-0.068-0.408-0.068
		c-0.163,0-0.335,0.046-0.516,0.136c-0.181,0.091-0.363,0.263-0.544,0.516l-0.271,0.38c-0.345-0.017-0.68-0.126-1.006-0.325
		c-0.326-0.199-0.553-0.453-0.679-0.762l0.245-0.543c0.253-0.724,0.666-1.267,1.236-1.63c0.571-0.362,1.164-0.543,1.78-0.543
		c0.579,0,1.096,0.145,1.549,0.434l1.331,0.68c0.145,0.072,0.281,0.132,0.408,0.177c0.126,0.045,0.262,0.067,0.407,0.067
		c0.308,0.019,0.653-0.208,1.033-0.679l0.271-0.353c0.326,0,0.657,0.104,0.992,0.312c0.335,0.208,0.567,0.467,0.694,0.775
		l-0.245,0.516c-0.706,1.45-1.685,2.174-2.935,2.174C923.023,29.048,922.48,28.903,921.973,28.613 M921.103,41.846
		c0.906,0,1.757-0.398,2.555-1.195v-2.365c-0.29-0.017-0.572-0.036-0.843-0.054c-0.272-0.018-0.534-0.028-0.788-0.028
		c-0.797,0-1.403,0.15-1.82,0.45c-0.417,0.298-0.625,0.792-0.625,1.48c0,0.543,0.135,0.965,0.407,1.264
		C920.261,41.697,920.632,41.846,921.103,41.846"/>
	<path class="st2" d="M939.853,31.819c1.285,1.287,1.929,3.152,1.929,5.597c0,1.087-0.136,2.07-0.407,2.948
		c-0.272,0.879-0.666,1.627-1.183,2.242c-0.516,0.617-1.154,1.092-1.915,1.427c-0.761,0.335-1.622,0.503-2.582,0.503
		c-0.96,0-1.815-0.168-2.567-0.503c-0.752-0.335-1.386-0.81-1.903-1.427c-0.515-0.615-0.91-1.363-1.181-2.242
		c-0.272-0.878-0.408-1.861-0.408-2.948c0-2.191,0.525-3.926,1.576-5.203c1.05-1.277,2.545-1.916,4.483-1.916
		C937.398,30.297,938.784,30.805,939.853,31.819 M935.695,32.96c-1.594,0-2.391,1.485-2.391,4.456c0,2.953,0.797,4.43,2.391,4.43
		c1.612,0,2.419-1.477,2.419-4.43C938.114,34.445,937.307,32.96,935.695,32.96"/>
	<path class="st2" d="M712.633,117.827c2.945-5.991,9.882-11.667,21.234-6.306c11.351,5.36,14.819,17.657,25.54,11.351
		s14.878-61.446-31.785-83.075c-11.534-6.032-22.134-10.574-19.296-20.665c6.387,2.896,15.487,6.463,21.757,9.145
		c7.172,3.067,24.928,9.144,37.689,28.694c12.762,19.549,26.943,55.02,39.165,64.009c10.309,7.582,24.098,5.676,27.384,5.045
		c-5.228,5.991-23.202,31.847-44.013,32.163c-20.811,0.315-40.991-16.397-60.225-31.847
		C722.515,120.034,717.571,117.827,712.633,117.827"/>
	<path class="st2" d="M700.976,35.237c0,0-1.316,14.021,8.072,18.203c12.414,5.53,33.045,8.235,42.795,24.735
		c-7.555-7.726-13.545-10.735-24.295-13.985s-19.611-5.34-25.308-10.521c0.59,5.844-1.123,13.555,13.877,18.305
		s29.968,8.415,39.121,21.554c-10.44-8.088-14.62-9.387-19.44-11.088c-9.774-3.451-15.18-2.829-23.165-7.295
		c0,4-0.231,12.652,9.542,15.295c17.793,4.811,32.542,7.494,40.373,19.75c1.25-11.75,2.75-46-24.25-58.5
		C719.01,43.803,707.86,41.245,700.976,35.237"/>
	<path class="st1" d="M835.619,62.131c0,0.034-0.034,0.312-0.034,0.347c-0.139,0.452-0.417,1.007-1.077,1.007h-2.328
		c-0.591,0-0.834-0.312-1.078-0.764c-0.381-1.077-0.625-1.91-1.215-2.71c-1.251-1.702-3.232-2.71-5.456-2.71
		c-3.717,0-6.774,3.058-6.774,6.809v6.046c0,3.752,3.057,6.81,6.774,6.81c2.224,0,4.17-1.007,5.525-2.779
		c0.695-0.939,0.973-1.842,1.251-2.989l-0.035,0.071c0.104-0.626,0.452-0.939,1.077-0.939h2.328c0.66,0,1.112,0.556,1.112,1.112
		c0,0.695-0.209,1.494-0.452,2.154c-1.563,4.447-6.08,7.817-10.806,7.817c-6.218,0-11.291-5.037-11.291-11.257V64.11
		c0-6.218,5.073-11.326,11.291-11.326C830.095,52.784,834.508,56.71,835.619,62.131"/>
	<path class="st1" d="M859.555,72.206c0,4.864-4.1,8.825-8.964,8.825h-2.675c-4.587,0-8.443-3.648-8.443-8.373v-18.31
		c0-0.73,0.382-1.112,1.112-1.112h2.327c1.078,0,1.113,0.659,1.113,1.355v18.067c0,2.119,1.806,3.821,3.891,3.821h2.675
		c2.398,0,4.378-1.911,4.378-4.273V54.591c0-0.696,0.069-1.355,1.147-1.355h2.293c0.764,0,1.146,0.382,1.146,1.112V72.206z"/>
	<path class="st1" d="M868.414,79.92c0,0.556-0.486,1.111-1.146,1.111h-2.363c-0.66,0-1.043-0.555-1.043-1.111l-0.069-25.572
		c0-0.556,0.452-1.112,1.112-1.112h2.363c0.66,0,1.146,0.556,1.146,1.112V79.92z"/>
	<path class="st1" d="M883.595,53.236c6.08,0,11.049,4.968,11.049,11.014v5.767c0,6.045-4.969,11.014-11.049,11.014h-9.832
		c-0.66,0-1.112-0.452-1.112-1.112l-0.069-25.572c0-0.555,0.521-1.111,1.181-1.111H883.595z M877.237,57.856V76.41h6.358
		c3.51,0,6.428-2.918,6.428-6.393V64.25c0-3.475-2.918-6.394-6.428-6.394H877.237z"/>
	<path class="st1" d="M917.859,81.031h-2.502c-0.729,0-0.868-0.382-1.111-0.903l-3.162-9.138l-8.547,3.787l-1.911,5.351
		c-0.243,0.555-0.313,0.903-1.147,0.903h-2.397c-0.556,0-1.146-0.452-1.146-1.111c0-0.14,7.956-23.592,8.859-25.78
		c0.243-0.522,0.417-0.904,1.112-0.904h3.058c0.694,0,0.834,0.451,1.077,0.904l8.895,25.363c0.034,0.243,0.034,0.277,0.034,0.417
		C918.971,80.649,918.589,81.031,917.859,81.031 M909.416,66.369c-0.417-1.111-0.694-1.807-0.799-2.188
		c-0.104-0.383-0.243-0.696-0.347-1.078c-0.244-0.695-0.452-1.424-0.834-2.502l-2.815,7.887L909.416,66.369z"/>
	<path class="st1" d="M935.985,53.236c3.127,0,5.872,2.744,5.872,5.906c0,2.641-1.425,4.169-3.405,5.525
		c0.73,1.945,1.425,3.752,2.12,5.698c1.111,3.056,2.258,6.149,3.475,9.241c0.381,0.938-0.14,1.425-1.078,1.425h-2.64
		c-0.73,0-0.939-0.417-1.113-0.868l-5.002-13.239c-2.398,1.251-4.517,2.433-7.019,3.718v9.033c0,0.696-0.034,1.356-1.111,1.356
		h-2.467c-0.66,0-1.077-0.556-1.077-1.112l-0.07-25.572c0-0.555,0.487-1.111,1.147-1.111H935.985z M927.195,57.856v7.574
		c2.745-1.354,8.93-4.412,9.659-5.558v0.034c0.139-0.208,0.208-0.451,0.208-0.73c0-0.729-0.555-1.32-1.354-1.32H927.195z"/>
	<path class="st1" d="M830.199,113.466c-1.563,1.39-3.787,1.98-6.288,1.98h-2.641c-3.023,0-5.733-1.528-7.227-3.925
		c-0.521-0.765-0.833-1.53-0.973-2.259c-0.277-1.424-0.243-2.015-0.243-2.815v0.071c0-0.696,0.035-1.356,1.112-1.356h2.363
		c0.555,0,0.903,0.279,1.042,0.834c0.139,0.451,0.104,0.556,0.104,1.112c0,0.173,0.035,0.487,0.069,0.938
		c0.383,1.702,1.947,2.953,3.753,2.953h2.641c2.084,0,3.891-1.146,4.204-2.988c0.034-0.243,0.069-0.451,0.069-0.694
		c0.035-0.453,0.07-1.495-0.521-2.016c-0.973-0.833-3.092-1.181-5.594-1.772c-4.447-1.007-9.242-2.362-9.242-7.018v-0.486
		c0-0.73-0.034-1.459,0.209-2.398l-0.035,0.035c0.729-3.856,4.308-6.671,8.269-6.671h2.641c2.084,0,4.064,0.764,5.628,2.015
		c1.563,1.251,2.536,3.648,2.432,6.323c-0.035,0.696-0.035,1.356-1.112,1.356h-2.293c-0.66,0-1.077-0.556-1.111-1.112
		c-0.105-2.954-1.32-4.065-3.544-4.065h-2.641c-1.772,0-3.405,1.285-3.787,3.058V94.53c-0.104,0.591-0.313,1.633,0.556,2.502
		c0.451,0.452,0.972,0.765,1.494,0.904l3.995,1.111c2.085,0.591,3.579,0.974,4.447,1.286c0.939,0.313,1.738,0.73,2.433,1.181
		c1.424,0.973,2.432,2.64,2.432,5.004C832.84,109.158,831.762,112.076,830.199,113.466"/>
	<path class="st1" d="M860.285,103.911c0,6.394-5.455,11.535-12.126,11.535c-6.67,0-12.16-5.141-12.16-11.535v-5.454
		c0-6.394,5.525-11.501,12.196-11.501c6.705,0,12.09,5.107,12.09,11.501V103.911z M855.595,98.457c0-3.892-3.37-7.088-7.436-7.088
		c-4.099,0-7.469,3.231-7.469,7.088v5.454c0,3.892,3.37,7.088,7.469,7.088c4.066,0,7.436-3.196,7.436-7.088V98.457z"/>
	<path class="st1" d="M865.183,115.134c-0.695,0-1.043-0.382-1.043-1.112l-0.069-25.572c0-0.729,0.382-1.112,1.112-1.112h2.397
		c1.077,0,1.112,0.66,1.112,1.356v21.819h11.535c1.251,0,1.354,0.104,1.354,1.355v1.876c0,0.695-0.034,1.39-1.111,1.39H865.183z"/>
	<path class="st1" d="M889.641,114.021c0,0.557-0.486,1.112-1.146,1.112h-2.363c-0.66,0-1.043-0.555-1.043-1.112L885.02,88.45
		c0-0.556,0.452-1.113,1.112-1.113h2.363c0.66,0,1.146,0.557,1.146,1.113V114.021z"/>
	<path class="st1" d="M904.822,87.338c6.08,0,11.049,4.969,11.049,11.015v5.767c0,6.045-4.969,11.014-11.049,11.014h-9.832
		c-0.66,0-1.112-0.452-1.112-1.113l-0.069-25.571c0-0.555,0.521-1.112,1.181-1.112H904.822z M898.464,91.959v18.554h6.358
		c3.51,0,6.428-2.918,6.428-6.393v-5.767c0-3.475-2.918-6.394-6.428-6.394H898.464z"/>
	<path class="st1" d="M939.086,115.134h-2.502c-0.729,0-0.868-0.382-1.111-0.903l-3.162-9.138l-8.547,3.787l-1.911,5.351
		c-0.243,0.555-0.313,0.903-1.112,0.903h-2.432c-0.556,0-1.146-0.452-1.146-1.112c0-0.139,7.956-23.591,8.859-25.779
		c0.243-0.522,0.417-0.905,1.112-0.905h3.058c0.694,0,0.834,0.452,1.077,0.905l8.895,25.363c0.034,0.243,0.034,0.277,0.034,0.416
		C940.198,114.752,939.816,115.134,939.086,115.134 M930.643,100.472c-0.417-1.111-0.694-1.807-0.799-2.188
		c-0.104-0.383-0.243-0.696-0.347-1.078c-0.244-0.695-0.452-1.424-0.834-2.502l-2.815,7.887L930.643,100.472z"/>
	<path class="st1" d="M957.212,87.338c3.127,0,5.872,2.745,5.872,5.907c0,2.641-1.425,4.169-3.405,5.525
		c0.73,1.945,1.425,3.752,2.12,5.698c1.111,3.056,2.258,6.149,3.475,9.241c0.381,0.938-0.14,1.425-1.078,1.425h-2.64
		c-0.73,0-0.939-0.417-1.113-0.868l-5.002-13.239c-2.398,1.251-4.517,2.433-7.019,3.718v9.033c0,0.696-0.034,1.356-1.111,1.356
		h-2.467c-0.66,0-1.077-0.556-1.077-1.113l-0.07-25.571c0-0.555,0.487-1.112,1.147-1.112H957.212z M948.422,91.959v7.574
		c2.745-1.354,8.93-4.412,9.659-5.558v0.035c0.139-0.209,0.208-0.452,0.208-0.731c0-0.729-0.555-1.32-1.354-1.32H948.422z"/>
	<path class="st1" d="M972.637,114.021c0,0.557-0.486,1.112-1.146,1.112h-2.363c-0.66,0-1.043-0.555-1.043-1.112l-0.069-25.571
		c0-0.556,0.452-1.113,1.112-1.113h2.363c0.66,0,1.146,0.557,1.146,1.113V114.021z"/>
	<path class="st1" d="M1000.71,103.911c0,6.394-5.455,11.535-12.126,11.535c-6.67,0-12.16-5.141-12.16-11.535v-5.454
		c0-6.394,5.525-11.501,12.196-11.501c6.705,0,12.09,5.107,12.09,11.501V103.911z M996.02,98.457c0-3.892-3.37-7.088-7.436-7.088
		c-4.099,0-7.469,3.231-7.469,7.088v5.454c0,3.892,3.37,7.088,7.469,7.088c4.066,0,7.436-3.196,7.436-7.088V98.457z"/>
	<path class="st1" d="M934.688,92.119c-0.349-1.101-0.578-1.42-0.072-2.341l0.922-1.572c0.417-0.591,1.042-0.868,1.911-0.868h2.363
		c0.834,0,1.216,0.416,0.799,1.076l-3.689,4.541c-0.517,0.664-1.177,1.807-1.639,0.766
		C935.185,93.501,934.869,92.691,934.688,92.119"/>
	<line class="st2" x1="1050.964" y1="30.609" x2="1050.964" y2="115.133"/>
	<line class="st4" x1="1050.964" y1="30.609" x2="1050.964" y2="115.133"/>
</g>
</svg>