<!-- Generator: Adobe Illustrator 22.0.1, SVG Export Plug-In  -->
<svg version="1.1"
	 xmlns="http://www.w3.org/2000/svg" xmlns:xlink="http://www.w3.org/1999/xlink" xmlns:a="http://ns.adobe.com/AdobeSVGViewerExtensions/3.0/"
	 x="0px" y="0px" width="386.22px" height="385.45px" viewBox="0 0 386.22 385.45"
	 style="enable-background:new 0 0 386.22 385.45;" xml:space="preserve">
<style type="text/css">
	.st0{fill:#FFFFFF;}
</style>
<defs>
</defs>
<path class="st0" d="M96.072,25.854C125.649,8.622,157.932,0,192.917,0c34.979,0,67.328,8.622,97.038,25.854
	c29.708,17.232,53.178,40.643,70.414,70.221c17.23,29.578,25.851,61.863,25.851,96.841c0,34.985-8.621,67.27-25.851,96.848
	c-17.237,29.572-40.706,52.914-70.414,70.026c-29.71,17.1-62.059,25.659-97.038,25.659c-53.245,0-98.713-18.783-136.392-56.336
	C18.84,291.567,0,246.163,0,192.917c0-34.979,8.614-67.263,25.851-96.841C43.081,66.497,66.489,43.086,96.072,25.854z
	 M241.532,113.433V73.311h-39.356h-1.157c-1.291,0-3.087,0.132-5.402,0.383c-2.314,0.257-6.305,1.35-11.96,3.278
	c-5.661,1.934-10.55,4.572-14.662,7.913c-4.118,3.347-7.716,8.811-10.803,16.397c-3.087,7.592-4.118,16.397-3.087,26.432v23.92
	h-23.923v40.128h23.923v120.761h49.386V191.761h33.181l3.087-40.128h-36.268v-23.92c0-1.796,0.126-3.341,0.386-4.635
	c0.253-1.281,0.639-2.437,1.157-3.473c0.512-1.024,1.025-1.928,1.543-2.7c0.512-0.766,1.284-1.35,2.314-1.733
	c1.025-0.389,1.798-0.703,2.316-0.967c0.512-0.251,1.284-0.446,2.316-0.578c1.024-0.126,1.735-0.195,2.121-0.195s1.091,0,2.123,0
	h1.543H241.532z"/>
</svg>